<svg width="99" height="24" viewBox="0 0 99 24" fill="none" xmlns="http://www.w3.org/2000/svg">
<path d="M0 0.45839V23.3779H14.6799V19.2851H4.97446V0.45839H0Z" fill="#F9FAFB"/>
<path d="M21.033 11.9181C21.033 10.4557 21.3577 9.15689 22.007 8.02183C22.6564 6.88677 23.5492 5.99181 24.6856 5.33697C25.8219 4.68213 27.1438 4.35471 28.6512 4.35471C30.1818 4.35471 31.5153 4.68213 32.6517 5.33697C33.788 5.99181 34.6693 6.88677 35.2955 8.02183C35.9216 9.15689 36.2347 10.4557 36.2347 11.9181C36.2347 13.3806 35.91 14.6794 35.2607 15.8145C34.6345 16.9495 33.7533 17.8445 32.6169 18.4993C31.4805 19.1542 30.1587 19.4816 28.6512 19.4816C27.1438 19.4816 25.8219 19.1542 24.6856 18.4993C23.5492 17.8445 22.6564 16.9495 22.007 15.8145C21.3577 14.6794 21.033 13.3806 21.033 11.9181ZM15.7803 11.9181C15.7803 13.6426 16.0933 15.2469 16.7195 16.7312C17.3457 18.1937 18.2385 19.4707 19.3981 20.5621C20.5576 21.6535 21.9143 22.5048 23.4681 23.116C25.045 23.7053 26.7728 24 28.6512 24C30.5297 24 32.2458 23.7053 33.7996 23.116C35.3766 22.5048 36.7333 21.6535 37.8696 20.5621C39.0292 19.4707 39.922 18.1937 40.5482 16.7312C41.1975 15.2469 41.5222 13.6426 41.5222 11.9181C41.5222 10.1719 41.1975 8.57844 40.5482 7.13779C39.922 5.67531 39.0176 4.40928 37.8349 3.3397C36.6753 2.27012 35.3186 1.45157 33.7648 0.884038C32.2111 0.294679 30.5065 0 28.6512 0C26.8192 0 25.1146 0.294679 23.5376 0.884038C21.9838 1.45157 20.6272 2.27012 19.4676 3.3397C18.3081 4.40928 17.4036 5.67531 16.7543 7.13779C16.1049 8.57844 15.7803 10.1719 15.7803 11.9181Z" fill="#F9FAFB"/>
<path d="M57.8909 14.8649H64.8829C64.6742 15.5634 64.3727 16.2074 63.9785 16.7967C63.5842 17.3861 63.0972 17.91 62.5175 18.3683C61.9377 18.8267 61.2536 19.1869 60.4651 19.4488C59.6998 19.6889 58.8185 19.809 57.8213 19.809C56.3139 19.809 54.9572 19.4816 53.7513 18.8267C52.5685 18.1719 51.6293 17.2551 50.9336 16.0764C50.2378 14.8759 49.89 13.4898 49.89 11.9181C49.89 10.3247 50.2378 8.94952 50.9336 7.79263C51.6525 6.63574 52.6149 5.7517 53.8209 5.14052C55.0268 4.5075 56.3603 4.191 57.8213 4.191C59.3751 4.191 60.6854 4.5075 61.7522 5.14052C62.8421 5.7517 63.6886 6.55934 64.2916 7.56344L68.5355 5.23874C67.7934 4.16917 66.9006 3.25239 65.857 2.4884C64.8366 1.70259 63.6538 1.09141 62.3087 0.654844C60.9869 0.218281 59.491 0 57.8213 0C55.9428 0 54.2035 0.283766 52.6033 0.851297C51.0032 1.41883 49.6117 2.22647 48.429 3.27422C47.2462 4.32196 46.3186 5.58799 45.646 7.07231C44.9967 8.53479 44.672 10.1501 44.672 11.9181C44.672 13.6862 44.9851 15.3124 45.6113 16.7967C46.2606 18.281 47.1651 19.558 48.3246 20.6276C49.5073 21.6971 50.8872 22.5266 52.4642 23.116C54.0644 23.7053 55.8037 24 57.6821 24C59.6766 24 61.4507 23.6617 63.0045 22.985C64.5583 22.3083 65.857 21.3806 66.9006 20.2019C67.9673 19.0014 68.7442 17.6262 69.2312 16.0764C69.7414 14.5266 69.9618 12.8786 69.8922 11.1323H57.8909V14.8649Z" fill="#F9FAFB"/>
<path d="M78.5108 11.9181C78.5108 10.4557 78.8355 9.15689 79.4848 8.02183C80.1342 6.88677 81.027 5.99181 82.1634 5.33697C83.2997 4.68213 84.6216 4.35471 86.129 4.35471C87.6596 4.35471 88.9931 4.68213 90.1295 5.33697C91.2658 5.99181 92.1471 6.88677 92.7732 8.02183C93.3994 9.15689 93.7125 10.4557 93.7125 11.9181C93.7125 13.3806 93.3878 14.6794 92.7384 15.8145C92.1123 16.9495 91.231 17.8445 90.0947 18.4993C88.9583 19.1542 87.6364 19.4816 86.129 19.4816C84.6216 19.4816 83.2997 19.1542 82.1634 18.4993C81.027 17.8445 80.1342 16.9495 79.4848 15.8145C78.8355 14.6794 78.5108 13.3806 78.5108 11.9181ZM73.258 11.9181C73.258 13.6426 73.5711 15.2469 74.1973 16.7312C74.8234 18.1937 75.7163 19.4707 76.8758 20.5621C78.0354 21.6535 79.3921 22.5048 80.9458 23.116C82.5228 23.7053 84.2505 24 86.129 24C88.0075 24 89.7236 23.7053 91.2774 23.116C92.8544 22.5048 94.2111 21.6535 95.3474 20.5621C96.507 19.4707 97.3998 18.1937 98.026 16.7312C98.6753 15.2469 99 13.6426 99 11.9181C99 10.1719 98.6753 8.57844 98.026 7.13779C97.3998 5.67531 96.4954 4.40928 95.3126 3.3397C94.1531 2.27012 92.7964 1.45157 91.2426 0.884038C89.6888 0.294679 87.9843 0 86.129 0C84.2969 0 82.5924 0.294679 81.0154 0.884038C79.4616 1.45157 78.1049 2.27012 76.9454 3.3397C75.7859 4.40928 74.8814 5.67531 74.2321 7.13779C73.5827 8.57844 73.258 10.1719 73.258 11.9181Z" fill="#F9FAFB"/>
</svg>
